<?xml version="1.0" encoding="utf-8"?>
<!-- Generator: Adobe Illustrator 23.0.3, SVG Export Plug-In . SVG Version: 6.00 Build 0)  -->
<svg version="1.1" id="Layer_1" xmlns="http://www.w3.org/2000/svg" xmlns:xlink="http://www.w3.org/1999/xlink" x="0px" y="0px"
	 viewBox="0 0 750 1334" style="enable-background:new 0 0 750 1334;" xml:space="preserve">
<style type="text/css">
	.st0{clip-path:url(#SVGID_2_);fill:#383838;}
	.st1{fill:none;stroke:#383838;stroke-width:12;stroke-miterlimit:10;}
	.st2{fill:#FFFFFF;}
	.st3{clip-path:url(#SVGID_4_);fill:#383838;}
</style>
<g>
	<defs>
		<path id="SVGID_1_" d="M520,459.1c28,0,55.9,10.6,77.3,31.9c21.5,21.5,31.7,49.9,31.5,78.2c42.6,4,76.2,39.7,76.2,83.3
			c0,46.3-37.7,84.1-84.1,84.1h-206c-44.1,0-79.9-35.8-79.9-79.9c0-43,34.1-77.9,76.7-79.6c-2.5-30.8,7.5-62.5,31-86.1
			C464.1,469.7,492,459.1,520,459.1z M520,475.9c-23.7,0-47.3,9-65.4,27.1c-22,22-30.5,52.3-25.8,80.8c0.8,4.6-2.3,8.9-6.8,9.7
			c-0.5,0.1-1,0.1-1.4,0.1h-5.7c-35.1,0-63.1,28-63.1,63.1c0,35.1,28,63.1,63.1,63.1h206c37.3,0,67.3-30,67.3-67.3
			c0-37.3-30-67.3-67.3-67.3c-0.2,0-0.3,0-0.4,0c-4.6,0-8.4-3.7-8.4-8.4c0-0.3,0-0.5,0-0.8c2.2-26.2-6.6-53-26.7-73.1
			C567.3,484.9,543.7,475.9,520,475.9L520,475.9z"/>
	</defs>
	<use xlink:href="#SVGID_1_"  style="overflow:visible;fill:#383838;"/>
	<clipPath id="SVGID_2_">
		<use xlink:href="#SVGID_1_"  style="overflow:visible;"/>
	</clipPath>
	<ellipse class="st0" cx="518.8" cy="623" rx="183.8" ry="189"/>
</g>
<circle cx="576.6" cy="557.2" r="11.3"/>
<circle cx="456.9" cy="578.4" r="13.1"/>
<path d="M489.8,674.2c11.9,0,23.1-5.7,30.2-15.3c12.3,16.7,35.9,20.3,52.6,8c9.7-7.1,15.4-18.4,15.3-30.4c0-4.2-3.4-7.6-7.6-7.6
	c-4.2,0-7.6,3.4-7.6,7.6c0,12.5-10.1,22.7-22.7,22.7s-22.7-10.1-22.7-22.7v-15.1c0-0.3-0.1-0.7-0.2-1c16.2-4.1,26-20.5,22-36.6
	s-20.5-26-36.6-22c-16.2,4.1-26,20.5-22,36.6c2.7,10.8,11.1,19.2,22,22c-0.1,0.3-0.2,0.7-0.2,1v15.1c0,12.5-10.1,22.7-22.7,22.7
	s-22.7-10.1-22.7-22.7c0-4.2-3.4-7.6-7.6-7.6s-7.6,3.4-7.6,7.6C452,657.3,468.9,674.2,489.8,674.2z M504.9,591.2
	c0-8.3,6.8-15.1,15.1-15.1c8.3,0,15.1,6.8,15.1,15.1s-6.8,15.1-15.1,15.1C511.7,606.3,504.9,599.5,504.9,591.2z"/>
<circle class="st1" cx="421.6" cy="485.3" r="30.4"/>
<circle class="st1" cx="613.2" cy="476.9" r="30.4"/>
<circle cx="833.5" cy="497.4" r="2.5"/>
<ellipse class="st2" cx="303.5" cy="695" rx="236.5" ry="174"/>
<ellipse class="st2" cx="483.5" cy="771.5" rx="140.5" ry="110.5"/>
<g>
	<defs>
		<path id="SVGID_3_" d="M415.7,539.6c32.4,0,64.9,12.3,89.6,37c25,25,36.8,57.9,36.6,90.7c49.4,4.7,88.4,46,88.4,96.7
			c0,53.8-43.8,97.6-97.6,97.6h-239c-51.2,0-92.7-41.5-92.7-92.7c0-49.9,39.6-90.4,89-92.4c-2.9-35.8,8.7-72.5,36-99.9
			C350.7,552,383.2,539.6,415.7,539.6z M415.7,559.1c-27.5,0-54.9,10.4-75.9,31.4c-25.6,25.6-35.4,60.7-29.9,93.8
			c0.9,5.3-2.6,10.4-7.9,11.3c-0.6,0.1-1.1,0.1-1.7,0.1h-6.6c-40.7,0-73.2,32.5-73.2,73.2c0,40.7,32.5,73.2,73.2,73.2h239
			c43.2,0,78.1-34.8,78.1-78.1S576,686,532.7,686c-0.2,0-0.4,0-0.5,0c-5.4,0-9.8-4.3-9.8-9.7c0-0.3,0-0.6,0-1
			c2.5-30.4-7.7-61.5-30.9-84.8C470.6,569.6,443.1,559.1,415.7,559.1L415.7,559.1z"/>
	</defs>
	<use xlink:href="#SVGID_3_"  style="overflow:visible;fill:#383838;"/>
	<clipPath id="SVGID_4_">
		<use xlink:href="#SVGID_3_"  style="overflow:visible;"/>
	</clipPath>
	<ellipse class="st3" cx="414.3" cy="729.8" rx="213.3" ry="219.3"/>
</g>
</svg>
