<?xml version="1.0" encoding="utf-8"?>
<!-- Generator: Adobe Illustrator 23.0.3, SVG Export Plug-In . SVG Version: 6.00 Build 0)  -->
<svg version="1.1" id="Layer_1" xmlns="http://www.w3.org/2000/svg" xmlns:xlink="http://www.w3.org/1999/xlink" x="0px" y="0px"
	 viewBox="0 0 100 125" style="enable-background:new 0 0 100 125;" xml:space="preserve">
<style type="text/css">
	.st0{fill:#231F20;}
</style>
<g>
	<path class="st0" d="M74.8,35.7H24.9c-0.6,0-1-0.4-1-1s0.4-1,1-1h49.9c0.6,0,1,0.4,1,1S75.3,35.7,74.8,35.7z"/>
	<path class="st0" d="M74.8,51.9H24.9c-0.6,0-1-0.4-1-1s0.4-1,1-1h49.9c0.6,0,1,0.4,1,1S75.3,51.9,74.8,51.9z"/>
	<path class="st0" d="M74.8,68H24.9c-0.6,0-1-0.4-1-1s0.4-1,1-1h49.9c0.6,0,1,0.4,1,1S75.3,68,74.8,68z"/>
</g>
</svg>
