<?xml version="1.0" encoding="utf-8"?>
<!-- Generator: Adobe Illustrator 23.0.3, SVG Export Plug-In . SVG Version: 6.00 Build 0)  -->
<svg version="1.1" id="Layer_1" xmlns="http://www.w3.org/2000/svg" xmlns:xlink="http://www.w3.org/1999/xlink" x="0px" y="0px"
	 viewBox="0 0 750 1334" style="enable-background:new 0 0 750 1334;" xml:space="preserve">
<style type="text/css">
	.st0{clip-path:url(#SVGID_2_);fill:#383838;}
	.st1{fill:none;stroke:#383838;stroke-width:12;stroke-miterlimit:10;}
	.st2{fill:#383838;}
</style>
<g>
	<defs>
		<path id="SVGID_1_" d="M522.7,464.6c32.4,0,64.9,12.3,89.6,37c25,25,36.8,57.9,36.6,90.7c49.4,4.7,88.4,46,88.4,96.7
			c0,53.8-43.8,97.6-97.6,97.6h-239c-51.2,0-92.7-41.5-92.7-92.7c0-49.9,39.6-90.4,89-92.4c-2.9-35.8,8.7-72.5,36-99.9
			C457.7,477,490.2,464.6,522.7,464.6z M522.7,484.1c-27.5,0-54.9,10.4-75.9,31.4c-25.6,25.6-35.4,60.7-29.9,93.8
			c0.9,5.3-2.6,10.4-7.9,11.3c-0.6,0.1-1.1,0.1-1.7,0.1h-6.6c-40.7,0-73.2,32.5-73.2,73.2c0,40.7,32.5,73.2,73.2,73.2h239
			c43.2,0,78.1-34.8,78.1-78.1S683,611,639.7,611c-0.2,0-0.4,0-0.5,0c-5.4,0-9.8-4.3-9.8-9.7c0-0.3,0-0.6,0-1
			c2.5-30.4-7.7-61.5-30.9-84.8C577.6,494.6,550.1,484.1,522.7,484.1L522.7,484.1z"/>
	</defs>
	<use xlink:href="#SVGID_1_"  style="overflow:visible;fill:#383838;"/>
	<clipPath id="SVGID_2_">
		<use xlink:href="#SVGID_1_"  style="overflow:visible;"/>
	</clipPath>
	<ellipse class="st0" cx="521.3" cy="654.8" rx="213.3" ry="219.3"/>
</g>
<circle cx="588.4" cy="578.4" r="13.1"/>
<circle cx="456.9" cy="578.4" r="13.1"/>
<path d="M487.6,714.2c13.8,0,26.8-6.6,35-17.8c14.3,19.4,41.6,23.6,61.1,9.3c11.2-8.3,17.8-21.4,17.8-35.3c0-4.8-3.9-8.8-8.8-8.8
	c-4.8,0-8.8,3.9-8.8,8.8c0,14.5-11.8,26.3-26.3,26.3c-14.5,0-26.3-11.8-26.3-26.3v-17.5c0-0.4-0.1-0.8-0.2-1.2
	c18.8-4.7,30.2-23.7,25.5-42.5c-4.7-18.8-23.7-30.2-42.5-25.5c-18.8,4.7-30.2,23.7-25.5,42.5c3.1,12.5,12.9,22.3,25.5,25.5
	c-0.1,0.4-0.2,0.8-0.2,1.2v17.5c0,14.5-11.8,26.3-26.3,26.3c-14.5,0-26.3-11.8-26.3-26.3c0-4.8-3.9-8.8-8.8-8.8s-8.8,3.9-8.8,8.8
	C443.8,694.6,463.4,714.2,487.6,714.2z M505.1,617.9c0-9.7,7.8-17.5,17.5-17.5s17.5,7.8,17.5,17.5s-7.8,17.5-17.5,17.5
	S505.1,627.5,505.1,617.9z"/>
<circle class="st1" cx="408.5" cy="495.1" r="35.3"/>
<circle class="st1" cx="630.8" cy="485.3" r="35.3"/>
<circle cx="833.5" cy="497.4" r="2.5"/>
<path class="st2" d="M474,635.7c0,9.5-7.7,17.3-17.3,17.3s-17.3-7.7-17.3-17.3c0-9.5,11.3-30.8,17.3-36.8
	C463.4,605.5,474,626.2,474,635.7z"/>
<path class="st2" d="M443,878.7c0,9.5-7.7,17.3-17.3,17.3s-17.3-7.7-17.3-17.3c0-9.5,11.3-30.8,17.3-36.8
	C432.4,848.5,443,869.2,443,878.7z"/>
<path class="st2" d="M505,826.7c0,9.5-7.7,17.3-17.3,17.3s-17.3-7.7-17.3-17.3c0-9.5,11.3-30.8,17.3-36.8
	C494.4,796.5,505,817.2,505,826.7z"/>
<path class="st2" d="M550,909.7c0,9.5-7.7,17.3-17.3,17.3s-17.3-7.7-17.3-17.3c0-9.5,11.3-30.8,17.3-36.8
	C539.4,879.5,550,900.2,550,909.7z"/>
<path class="st2" d="M605,836.7c0,9.5-7.7,17.3-17.3,17.3s-17.3-7.7-17.3-17.3c0-9.5,11.3-30.8,17.3-36.8
	C594.4,806.5,605,827.2,605,836.7z"/>
</svg>
