<?xml version="1.0" encoding="utf-8"?>
<!-- Generator: Adobe Illustrator 23.0.3, SVG Export Plug-In . SVG Version: 6.00 Build 0)  -->
<svg version="1.1"
	 id="Layer_1" xmlns:cc="http://creativecommons.org/ns#" xmlns:dc="http://purl.org/dc/elements/1.1/" xmlns:inkscape="http://www.inkscape.org/namespaces/inkscape" xmlns:rdf="http://www.w3.org/1999/02/22-rdf-syntax-ns#" xmlns:sodipodi="http://sodipodi.sourceforge.net/DTD/sodipodi-0.dtd" xmlns:svg="http://www.w3.org/2000/svg"
	 xmlns="http://www.w3.org/2000/svg" xmlns:xlink="http://www.w3.org/1999/xlink" x="0px" y="0px" viewBox="0 0 100 125"
	 style="enable-background:new 0 0 100 125;" xml:space="preserve">
<style type="text/css">
	.st0{clip-path:url(#SVGID_2_);}
	.st1{fill:#FFFFFF;stroke:#000000;stroke-width:3;stroke-miterlimit:10;}
</style>
<g>
	<defs>
		<path id="SVGID_1_" d="M50,17c6.7,0,13.3,2.5,18.4,7.6c5.1,5.1,7.5,11.9,7.5,18.6C86,44.1,94,52.6,94,63c0,11-9,20-20,20H25
			C14.5,83,6,74.5,6,64c0-10.2,8.1-18.5,18.3-18.9c-0.6-7.3,1.8-14.9,7.4-20.5C36.7,19.5,43.3,17,50,17z M50,21
			c-5.6,0-11.3,2.1-15.6,6.4c-5.2,5.2-7.3,12.4-6.1,19.2c0.2,1.1-0.5,2.1-1.6,2.3c-0.1,0-0.2,0-0.3,0H25c-8.3,0-15,6.7-15,15
			c0,8.3,6.7,15,15,15h49c8.9,0,16-7.1,16-16s-7.1-16-16-16c0,0-0.1,0-0.1,0c-1.1,0-2-0.9-2-2c0-0.1,0-0.1,0-0.2
			c0.5-6.2-1.6-12.6-6.3-17.4C61.3,23.1,55.6,21,50,21L50,21z"/>
	</defs>
	<use xlink:href="#SVGID_1_"  style="overflow:visible;"/>
	<clipPath id="SVGID_2_">
		<use xlink:href="#SVGID_1_"  style="overflow:visible;"/>
	</clipPath>
	<ellipse class="st0" cx="49.7" cy="56" rx="43.7" ry="44.9"/>
</g>
<circle cx="63.5" cy="40.3" r="2.7"/>
<circle cx="36.5" cy="40.3" r="2.7"/>
<path d="M42.8,68.2c2.8,0,5.5-1.4,7.2-3.6c2.9,4,8.5,4.8,12.5,1.9c2.3-1.7,3.7-4.4,3.6-7.2c0-1-0.8-1.8-1.8-1.8
	c-1,0-1.8,0.8-1.8,1.8c0,3-2.4,5.4-5.4,5.4c-3,0-5.4-2.4-5.4-5.4v-3.6c0-0.1,0-0.2,0-0.2c3.8-1,6.2-4.9,5.2-8.7
	c-1-3.8-4.9-6.2-8.7-5.2s-6.2,4.9-5.2,8.7c0.6,2.6,2.7,4.6,5.2,5.2c0,0.1,0,0.2,0,0.2v3.6c0,3-2.4,5.4-5.4,5.4c-3,0-5.4-2.4-5.4-5.4
	c0-1-0.8-1.8-1.8-1.8s-1.8,0.8-1.8,1.8C33.8,64.1,37.9,68.2,42.8,68.2z M46.4,48.4c0-2,1.6-3.6,3.6-3.6c2,0,3.6,1.6,3.6,3.6
	S52,52,50,52C48,52,46.4,50.4,46.4,48.4z"/>
<circle class="st1" cx="26.6" cy="23.2" r="7.2"/>
<circle class="st1" cx="72.2" cy="21.2" r="7.2"/>
<circle cx="113.7" cy="23.7" r="0.5"/>
</svg>
